<svg xmlns="http://www.w3.org/2000/svg" width="69" height="92" viewBox="0 0 69 92" fill="none">
  <g filter="url(#filter0_d_11_664)">
    <rect x="1" y="1" width="67" height="90" rx="4" fill="url(#paint0_linear_11_664)" />
    <rect x="0" y="0" width="69" height="92" rx="5" stroke="#616896" strokeWidth="2" />
  </g>
  <path
    d="M28.7775 26.3335C28.6508 26.2601 28.4943 26.2606 28.3681 26.3348L22.2596 29.9263C22.1355 29.9992 22.0593 30.1325 22.0593 30.2765V33.5407C22.0593 33.6849 22.1357 33.8182 22.2601 33.8912L24.6837 35.312C24.9524 35.4696 24.9511 35.8585 24.6813 36.0143L22.4704 37.2907C22.3439 37.3638 22.1879 37.3633 22.0618 37.2894L19.953 36.053C19.3797 35.7169 19.0275 35.1022 19.0275 34.4376V29.3809C19.0275 28.7172 19.3788 28.103 19.951 27.7666L27.6188 23.2583C28.2008 22.9162 28.9219 22.9137 29.5062 23.252L46.8745 33.3078C47.4528 33.6426 47.8088 34.2602 47.8088 34.9284V43.6372C47.8088 44.3021 47.4562 44.9171 46.8824 45.2531L35.9912 51.6305C35.4129 51.9691 34.6977 51.9729 34.1159 51.6404L29.4694 48.9853C29.1972 48.8298 29.1963 48.4376 29.4678 48.2808L31.693 46.9961C31.8181 46.9239 31.9722 46.9236 32.0976 46.9952L34.8338 48.5588C34.96 48.6309 35.1152 48.6301 35.2406 48.5566L44.576 43.0903C44.7005 43.0174 44.777 42.884 44.777 42.7397V35.8309C44.777 35.686 44.6998 35.552 44.5743 35.4794L28.7775 26.3335Z"
    fill="#33365F" fillOpacity="0.8" />
  <path
    d="M37.693 39.8253C37.9645 39.6685 37.9636 39.2761 37.6912 39.1207L32.7147 36.2802C32.1335 35.9484 31.4193 35.952 30.8415 36.2897L19.9277 42.6683C19.3532 43.0041 19 43.6196 19 44.285L19 52.9857C19 53.6517 19.3538 54.2676 19.9291 54.6032L37.3151 64.7449C37.896 65.0837 38.6139 65.0851 39.1961 64.7485L46.8804 60.305C47.4591 59.9703 47.8156 59.3525 47.8156 58.6839V53.5356C47.8156 52.8683 47.4604 52.2513 46.8833 51.9162L44.6896 50.6425C44.5638 50.5695 44.4085 50.5693 44.2825 50.642L42.0663 51.9215C41.7959 52.0777 41.7954 52.4678 42.0655 52.6246L44.5815 54.0856C44.7067 54.1583 44.7837 54.2921 44.7837 54.4369V57.7808C44.7837 57.9258 44.7064 58.0599 44.5809 58.1325L38.4654 61.6687C38.3392 61.7418 38.1834 61.7415 38.0574 61.668L22.2334 52.4374C22.1086 52.3646 22.0318 52.231 22.0318 52.0865L22.0318 45.1833C22.0318 45.0389 22.1084 44.9054 22.2331 44.8326L31.5907 39.3636C31.7161 39.2903 31.871 39.2895 31.9971 39.3615L35.0627 41.1113C35.1881 41.1829 35.3421 41.1825 35.4672 41.1103L37.693 39.8253Z"
    fill="#33365F" fillOpacity="0.8" />
  <defs>
    <filter id="filter0_d_11_664" x="0" y="0" width="69" height="92" filterUnits="userSpaceOnUse"
      colorInterpolationFilters="sRGB">
      <feFlood floodOpacity="0" result="BackgroundImageFix" />
      <feColorMatrix in="SourceAlpha" type="matrix" values="0 0 0 0 0 0 0 0 0 0 0 0 0 0 0 0 0 0 127 0"
        result="hardAlpha" />
      <feOffset dx="2" dy="2" />
      <feGaussianBlur stdDeviation="2" />
      <feComposite in2="hardAlpha" operator="out" />
      <feColorMatrix type="matrix" values="0 0 0 0 0 0 0 0 0 0 0 0 0 0 0 0 0 0 0.2 0" />
      <feBlend mode="multiply" in2="BackgroundImageFix" result="effect1_dropShadow_11_664" />
      <feBlend mode="normal" in="SourceGraphic" in2="effect1_dropShadow_11_664" result="shape" />
    </filter>
    <linearGradient id="paint0_linear_11_664" x1="19" y1="4" x2="49.6295" y2="82.9803" gradientUnits="userSpaceOnUse">
      <stop stopColor="#434979" />
      <stop offset="1" stopColor="#444B7A" />
    </linearGradient>
  </defs>
</svg>